<svg xmlns="http://www.w3.org/2000/svg" width="1200" height="720" viewBox="0 0 1200 720">
  <rect width="1200" height="720" fill="#fbfaf6"/>
  <text x="80" y="36" font-family="Menlo, monospace" font-size="24" fill="#111827">Experiment Progress: 00-glm-claims-quickstart</text>
  <text x="80" y="58" font-family="Menlo, monospace" font-size="14" fill="#6b7280">metric=primary_metric goal=higher</text>
  <line x1="80" y1="630.0" x2="1160" y2="630.0" stroke="#e5e7eb" stroke-width="1"/>
  <text x="68" y="635.0" text-anchor="end" font-family="Menlo, monospace" font-size="12" fill="#6b7280">0.6195</text>
  <line x1="80" y1="518.0" x2="1160" y2="518.0" stroke="#e5e7eb" stroke-width="1"/>
  <text x="68" y="523.0" text-anchor="end" font-family="Menlo, monospace" font-size="12" fill="#6b7280">0.6292</text>
  <line x1="80" y1="406.0" x2="1160" y2="406.0" stroke="#e5e7eb" stroke-width="1"/>
  <text x="68" y="411.0" text-anchor="end" font-family="Menlo, monospace" font-size="12" fill="#6b7280">0.6388</text>
  <line x1="80" y1="294.0" x2="1160" y2="294.0" stroke="#e5e7eb" stroke-width="1"/>
  <text x="68" y="299.0" text-anchor="end" font-family="Menlo, monospace" font-size="12" fill="#6b7280">0.6484</text>
  <line x1="80" y1="182.0" x2="1160" y2="182.0" stroke="#e5e7eb" stroke-width="1"/>
  <text x="68" y="187.0" text-anchor="end" font-family="Menlo, monospace" font-size="12" fill="#6b7280">0.6580</text>
  <line x1="80" y1="70.0" x2="1160" y2="70.0" stroke="#e5e7eb" stroke-width="1"/>
  <text x="68" y="75.0" text-anchor="end" font-family="Menlo, monospace" font-size="12" fill="#6b7280">0.6676</text>
  <line x1="80.0" y1="70" x2="80.0" y2="630" stroke="#f1f5f9" stroke-width="1"/>
  <text x="80.0" y="654" text-anchor="middle" font-family="Menlo, monospace" font-size="12" fill="#6b7280">1</text>
  <line x1="296.0" y1="70" x2="296.0" y2="630" stroke="#f1f5f9" stroke-width="1"/>
  <text x="296.0" y="654" text-anchor="middle" font-family="Menlo, monospace" font-size="12" fill="#6b7280">2</text>
  <line x1="512.0" y1="70" x2="512.0" y2="630" stroke="#f1f5f9" stroke-width="1"/>
  <text x="512.0" y="654" text-anchor="middle" font-family="Menlo, monospace" font-size="12" fill="#6b7280">3</text>
  <line x1="728.0" y1="70" x2="728.0" y2="630" stroke="#f1f5f9" stroke-width="1"/>
  <text x="728.0" y="654" text-anchor="middle" font-family="Menlo, monospace" font-size="12" fill="#6b7280">4</text>
  <line x1="944.0" y1="70" x2="944.0" y2="630" stroke="#f1f5f9" stroke-width="1"/>
  <text x="944.0" y="654" text-anchor="middle" font-family="Menlo, monospace" font-size="12" fill="#6b7280">5</text>
  <line x1="1160.0" y1="70" x2="1160.0" y2="630" stroke="#f1f5f9" stroke-width="1"/>
  <text x="1160.0" y="654" text-anchor="middle" font-family="Menlo, monospace" font-size="12" fill="#6b7280">6</text>
  <line x1="80" y1="630" x2="1160" y2="630" stroke="#111827" stroke-width="2"/>
  <line x1="80" y1="70" x2="80" y2="630" stroke="#111827" stroke-width="2"/>
  <polyline fill="none" stroke="#0f766e" stroke-width="3" points="80.0,561.1 296.0,560.2 512.0,125.2 1160.0,108.6"/>
  <circle cx="80.0" cy="561.1" r="4.5" fill="#16a34a" stroke="#111827" stroke-width="0.8"/>
  <circle cx="296.0" cy="560.2" r="4.5" fill="#16a34a" stroke="#111827" stroke-width="0.8"/>
  <circle cx="512.0" cy="125.2" r="4.5" fill="#16a34a" stroke="#111827" stroke-width="0.8"/>
  <circle cx="728.0" cy="591.4" r="4.5" fill="#16a34a" stroke="#111827" stroke-width="0.8"/>
  <circle cx="944.0" cy="255.5" r="4.5" fill="#16a34a" stroke="#111827" stroke-width="0.8"/>
  <circle cx="1160.0" cy="108.6" r="4.5" fill="#16a34a" stroke="#111827" stroke-width="0.8"/>
  <circle cx="1160.0" cy="108.6" r="7" fill="none" stroke="#dc2626" stroke-width="2"/>
  <text x="1172.0" y="98.6" font-family="Menlo, monospace" font-size="12" fill="#991b1b">best 0.664322</text>
  <text x="600.0" y="696" text-anchor="middle" font-family="Menlo, monospace" font-size="14" fill="#374151">Experiment #</text>
  <text x="24" y="360.0" transform="rotate(-90 24 360.0)" text-anchor="middle" font-family="Menlo, monospace" font-size="14" fill="#374151">primary_metric</text>
</svg>
