<svg xmlns="http://www.w3.org/2000/svg" width="1200" height="720" viewBox="0 0 1200 720">
  <rect width="1200" height="720" fill="#fbfaf6"/>
  <text x="80" y="36" font-family="Menlo, monospace" font-size="24" fill="#111827">Experiment Progress: 01-dae-claims</text>
  <text x="80" y="58" font-family="Menlo, monospace" font-size="14" fill="#6b7280">metric=primary_metric goal=higher</text>
  <line x1="80" y1="630.0" x2="1160" y2="630.0" stroke="#e5e7eb" stroke-width="1"/>
  <text x="68" y="635.0" text-anchor="end" font-family="Menlo, monospace" font-size="12" fill="#6b7280">0.4653</text>
  <line x1="80" y1="518.0" x2="1160" y2="518.0" stroke="#e5e7eb" stroke-width="1"/>
  <text x="68" y="523.0" text-anchor="end" font-family="Menlo, monospace" font-size="12" fill="#6b7280">0.5094</text>
  <line x1="80" y1="406.0" x2="1160" y2="406.0" stroke="#e5e7eb" stroke-width="1"/>
  <text x="68" y="411.0" text-anchor="end" font-family="Menlo, monospace" font-size="12" fill="#6b7280">0.5535</text>
  <line x1="80" y1="294.0" x2="1160" y2="294.0" stroke="#e5e7eb" stroke-width="1"/>
  <text x="68" y="299.0" text-anchor="end" font-family="Menlo, monospace" font-size="12" fill="#6b7280">0.5976</text>
  <line x1="80" y1="182.0" x2="1160" y2="182.0" stroke="#e5e7eb" stroke-width="1"/>
  <text x="68" y="187.0" text-anchor="end" font-family="Menlo, monospace" font-size="12" fill="#6b7280">0.6417</text>
  <line x1="80" y1="70.0" x2="1160" y2="70.0" stroke="#e5e7eb" stroke-width="1"/>
  <text x="68" y="75.0" text-anchor="end" font-family="Menlo, monospace" font-size="12" fill="#6b7280">0.6858</text>
  <line x1="80.0" y1="70" x2="80.0" y2="630" stroke="#f1f5f9" stroke-width="1"/>
  <text x="80.0" y="654" text-anchor="middle" font-family="Menlo, monospace" font-size="12" fill="#6b7280">1</text>
  <line x1="234.3" y1="70" x2="234.3" y2="630" stroke="#f1f5f9" stroke-width="1"/>
  <text x="234.3" y="654" text-anchor="middle" font-family="Menlo, monospace" font-size="12" fill="#6b7280">2</text>
  <line x1="388.6" y1="70" x2="388.6" y2="630" stroke="#f1f5f9" stroke-width="1"/>
  <text x="388.6" y="654" text-anchor="middle" font-family="Menlo, monospace" font-size="12" fill="#6b7280">3</text>
  <line x1="542.9" y1="70" x2="542.9" y2="630" stroke="#f1f5f9" stroke-width="1"/>
  <text x="542.9" y="654" text-anchor="middle" font-family="Menlo, monospace" font-size="12" fill="#6b7280">4</text>
  <line x1="697.1" y1="70" x2="697.1" y2="630" stroke="#f1f5f9" stroke-width="1"/>
  <text x="697.1" y="654" text-anchor="middle" font-family="Menlo, monospace" font-size="12" fill="#6b7280">5</text>
  <line x1="851.4" y1="70" x2="851.4" y2="630" stroke="#f1f5f9" stroke-width="1"/>
  <text x="851.4" y="654" text-anchor="middle" font-family="Menlo, monospace" font-size="12" fill="#6b7280">6</text>
  <line x1="1005.7" y1="70" x2="1005.7" y2="630" stroke="#f1f5f9" stroke-width="1"/>
  <text x="1005.7" y="654" text-anchor="middle" font-family="Menlo, monospace" font-size="12" fill="#6b7280">7</text>
  <line x1="1160.0" y1="70" x2="1160.0" y2="630" stroke="#f1f5f9" stroke-width="1"/>
  <text x="1160.0" y="654" text-anchor="middle" font-family="Menlo, monospace" font-size="12" fill="#6b7280">8</text>
  <line x1="80" y1="630" x2="1160" y2="630" stroke="#111827" stroke-width="2"/>
  <line x1="80" y1="70" x2="80" y2="630" stroke="#111827" stroke-width="2"/>
  <polyline fill="none" stroke="#0f766e" stroke-width="3" points="80.0,223.3 234.3,108.6"/>
  <circle cx="80.0" cy="223.3" r="4.5" fill="#16a34a" stroke="#111827" stroke-width="0.8"/>
  <circle cx="234.3" cy="108.6" r="4.5" fill="#16a34a" stroke="#111827" stroke-width="0.8"/>
  <circle cx="388.6" cy="114.6" r="4.5" fill="#9ca3af" stroke="#111827" stroke-width="0.8"/>
  <circle cx="542.9" cy="140.6" r="4.5" fill="#16a34a" stroke="#111827" stroke-width="0.8"/>
  <circle cx="697.1" cy="114.6" r="4.5" fill="#9ca3af" stroke="#111827" stroke-width="0.8"/>
  <circle cx="851.4" cy="133.9" r="4.5" fill="#9ca3af" stroke="#111827" stroke-width="0.8"/>
  <circle cx="1005.7" cy="206.2" r="4.5" fill="#16a34a" stroke="#111827" stroke-width="0.8"/>
  <circle cx="1160.0" cy="591.4" r="4.5" fill="#9ca3af" stroke="#111827" stroke-width="0.8"/>
  <circle cx="234.3" cy="108.6" r="7" fill="none" stroke="#dc2626" stroke-width="2"/>
  <text x="246.3" y="98.6" font-family="Menlo, monospace" font-size="12" fill="#991b1b">best 0.670616</text>
  <text x="600.0" y="696" text-anchor="middle" font-family="Menlo, monospace" font-size="14" fill="#374151">Experiment #</text>
  <text x="24" y="360.0" transform="rotate(-90 24 360.0)" text-anchor="middle" font-family="Menlo, monospace" font-size="14" fill="#374151">primary_metric</text>
</svg>
